<svg width="35" height="35" viewBox="0 0 35 35" fill="none" xmlns="http://www.w3.org/2000/svg">
<circle cx="17.5" cy="17.5" r="16.5" stroke="white" stroke-width="2"/>
<path d="M12.5057 24V22.7216L17.3068 17.4659C17.8703 16.8504 18.3343 16.3153 18.6989 15.8608C19.0634 15.4015 19.3333 14.9706 19.5085 14.5682C19.6884 14.161 19.7784 13.7348 19.7784 13.2898C19.7784 12.7784 19.6553 12.3357 19.4091 11.9616C19.1676 11.5876 18.8362 11.2988 18.4148 11.0952C17.9934 10.8916 17.5199 10.7898 16.9943 10.7898C16.4356 10.7898 15.9479 10.9058 15.5312 11.1378C15.1193 11.3651 14.7997 11.6847 14.5724 12.0966C14.3499 12.5085 14.2386 12.9915 14.2386 13.5455H12.5625C12.5625 12.6932 12.759 11.9451 13.152 11.3011C13.545 10.6572 14.08 10.1553 14.7571 9.79545C15.4389 9.43561 16.2036 9.25568 17.0511 9.25568C17.9034 9.25568 18.6586 9.43561 19.3168 9.79545C19.9749 10.1553 20.491 10.6406 20.8651 11.2514C21.2391 11.8622 21.4261 12.5417 21.4261 13.2898C21.4261 13.8248 21.3291 14.348 21.1349 14.8594C20.9455 15.366 20.6141 15.9318 20.1406 16.5568C19.6719 17.1771 19.0208 17.9347 18.1875 18.8295L14.9205 22.3239V22.4375H21.6818V24H12.5057Z" fill="white"/>
</svg>
