<svg width="35" height="35" viewBox="0 0 35 35" fill="none" xmlns="http://www.w3.org/2000/svg">
<circle cx="17.5" cy="17.5" r="16.5" stroke="white" stroke-width="2"/>
<path d="M17.4205 24.1989C16.483 24.1989 15.6473 24.0379 14.9134 23.7159C14.1842 23.3939 13.6042 22.9465 13.1733 22.3736C12.7472 21.7959 12.5152 21.1259 12.4773 20.3636H14.267C14.3049 20.8324 14.4659 21.2372 14.75 21.5781C15.0341 21.9143 15.4058 22.1747 15.8651 22.3594C16.3243 22.544 16.8333 22.6364 17.392 22.6364C18.017 22.6364 18.571 22.5275 19.054 22.3097C19.5369 22.0919 19.9157 21.7888 20.1903 21.4006C20.465 21.0123 20.6023 20.5625 20.6023 20.0511C20.6023 19.5161 20.4697 19.045 20.2045 18.6378C19.9394 18.2259 19.5511 17.9039 19.0398 17.6719C18.5284 17.4399 17.9034 17.3239 17.1648 17.3239H16V15.7614H17.1648C17.7424 15.7614 18.2491 15.6572 18.6847 15.4489C19.125 15.2405 19.4683 14.947 19.7145 14.5682C19.9654 14.1894 20.0909 13.7443 20.0909 13.233C20.0909 12.7405 19.982 12.312 19.7642 11.9474C19.5464 11.5829 19.2386 11.2988 18.8409 11.0952C18.4479 10.8916 17.9839 10.7898 17.4489 10.7898C16.947 10.7898 16.4735 10.8821 16.0284 11.0668C15.5881 11.2467 15.2282 11.5095 14.9489 11.8551C14.6695 12.196 14.518 12.608 14.4943 13.0909H12.7898C12.8182 12.3286 13.0478 11.661 13.4787 11.0881C13.9096 10.5104 14.473 10.0606 15.169 9.73864C15.8698 9.41667 16.6392 9.25568 17.4773 9.25568C18.3769 9.25568 19.1487 9.43797 19.7926 9.80256C20.4366 10.1624 20.9313 10.6383 21.277 11.2301C21.6226 11.822 21.7955 12.4612 21.7955 13.1477C21.7955 13.9669 21.58 14.6652 21.1491 15.2429C20.723 15.8205 20.143 16.2206 19.4091 16.4432V16.5568C20.3277 16.7083 21.045 17.099 21.5611 17.7287C22.0772 18.3537 22.3352 19.1278 22.3352 20.0511C22.3352 20.8419 22.1198 21.5521 21.6889 22.1818C21.2628 22.8068 20.6804 23.2992 19.9418 23.6591C19.2031 24.0189 18.3627 24.1989 17.4205 24.1989Z" fill="white"/>
</svg>
