<svg width="35" height="35" viewBox="0 0 35 35" fill="none" xmlns="http://www.w3.org/2000/svg">
<circle cx="17.5" cy="17.5" r="16.5" stroke="white" stroke-width="2"/>
<path d="M17.0511 24.1989C16.2178 24.1989 15.4673 24.0331 14.7997 23.7017C14.1321 23.3703 13.5971 22.9157 13.1946 22.3381C12.7921 21.7604 12.572 21.1023 12.5341 20.3636H14.2386C14.3049 21.0218 14.6032 21.5663 15.1335 21.9972C15.6686 22.4233 16.3078 22.6364 17.0511 22.6364C17.6477 22.6364 18.178 22.4967 18.642 22.2173C19.1108 21.938 19.4777 21.5545 19.7429 21.0668C20.0128 20.5743 20.1477 20.018 20.1477 19.3977C20.1477 18.7633 20.008 18.1974 19.7287 17.7003C19.4541 17.1984 19.0753 16.803 18.5923 16.5142C18.1094 16.2254 17.5578 16.0786 16.9375 16.0739C16.4924 16.0691 16.0355 16.1378 15.5668 16.2798C15.098 16.4171 14.7121 16.5947 14.4091 16.8125L12.7614 16.6136L13.642 9.45455H21.1989V11.017H15.1193L14.608 15.3068H14.6932C14.9915 15.0701 15.3655 14.8736 15.8153 14.7173C16.2652 14.5611 16.7339 14.483 17.2216 14.483C18.1117 14.483 18.9048 14.696 19.6009 15.1222C20.3016 15.5436 20.8509 16.1212 21.2486 16.8551C21.651 17.589 21.8523 18.4271 21.8523 19.3693C21.8523 20.2973 21.6439 21.1259 21.2273 21.8551C20.8153 22.5795 20.2472 23.1525 19.5227 23.5739C18.7983 23.9905 17.9744 24.1989 17.0511 24.1989Z" fill="white"/>
</svg>
