<svg width="35" height="35" viewBox="0 0 35 35" fill="none" xmlns="http://www.w3.org/2000/svg">
<circle cx="17.5" cy="17.5" r="16.5" stroke="white" stroke-width="2"/>
<path d="M17.3352 24.1989C16.7386 24.1894 16.142 24.0758 15.5455 23.858C14.9489 23.6402 14.4044 23.2732 13.9119 22.7571C13.4195 22.2363 13.0241 21.5331 12.7259 20.6477C12.4276 19.7576 12.2784 18.6402 12.2784 17.2955C12.2784 16.0076 12.3991 14.8665 12.6406 13.8722C12.8821 12.8731 13.2325 12.0327 13.6918 11.3509C14.151 10.6643 14.705 10.1435 15.3537 9.78835C16.0071 9.43324 16.7434 9.25568 17.5625 9.25568C18.3769 9.25568 19.1013 9.41903 19.7358 9.74574C20.375 10.0677 20.8958 10.5175 21.2983 11.0952C21.7008 11.6728 21.9612 12.3381 22.0795 13.0909H20.3466C20.1856 12.4375 19.8731 11.8954 19.4091 11.4645C18.9451 11.0336 18.3295 10.8182 17.5625 10.8182C16.4356 10.8182 15.5478 11.3082 14.8991 12.2884C14.2552 13.2685 13.9309 14.6439 13.9261 16.4148H14.0398C14.3049 16.0123 14.6198 15.669 14.9844 15.3849C15.3537 15.0961 15.7609 14.8736 16.206 14.7173C16.651 14.5611 17.1222 14.483 17.6193 14.483C18.4527 14.483 19.215 14.6913 19.9062 15.108C20.5975 15.5199 21.1515 16.0904 21.5682 16.8196C21.9848 17.544 22.1932 18.375 22.1932 19.3125C22.1932 20.2121 21.992 21.036 21.5895 21.7841C21.187 22.5275 20.6212 23.1193 19.892 23.5597C19.1676 23.9953 18.3153 24.2083 17.3352 24.1989ZM17.3352 22.6364C17.9318 22.6364 18.4669 22.4872 18.9403 22.1889C19.4186 21.8906 19.795 21.4905 20.0696 20.9886C20.349 20.4867 20.4886 19.928 20.4886 19.3125C20.4886 18.7112 20.3537 18.1643 20.0838 17.6719C19.8187 17.1747 19.4517 16.7794 18.983 16.4858C18.5189 16.1922 17.9886 16.0455 17.392 16.0455C16.9422 16.0455 16.5232 16.1354 16.1349 16.3153C15.7467 16.4905 15.4058 16.732 15.1122 17.0398C14.8234 17.3475 14.5961 17.7003 14.4304 18.098C14.2647 18.491 14.1818 18.9053 14.1818 19.3409C14.1818 19.9186 14.3168 20.4583 14.5866 20.9602C14.8613 21.4621 15.2353 21.867 15.7088 22.1747C16.187 22.4825 16.7292 22.6364 17.3352 22.6364Z" fill="white"/>
</svg>
