<svg width="35" height="35" viewBox="0 0 35 35" fill="none" xmlns="http://www.w3.org/2000/svg">
<circle cx="17.5" cy="17.5" r="16.5" stroke="white" stroke-width="2"/>
<path d="M17.1648 24.1989C16.1894 24.1989 15.3277 24.026 14.5795 23.6804C13.8362 23.33 13.2562 22.8494 12.8395 22.2386C12.4228 21.6231 12.2169 20.9223 12.2216 20.1364C12.2169 19.5208 12.3376 18.9527 12.5838 18.4318C12.83 17.9062 13.1662 17.4683 13.5923 17.1179C14.0232 16.7628 14.5038 16.5379 15.0341 16.4432V16.358C14.3381 16.178 13.7841 15.7874 13.3722 15.1861C12.9602 14.58 12.7566 13.8911 12.7614 13.1193C12.7566 12.3807 12.9437 11.7202 13.3224 11.1378C13.7012 10.5554 14.2221 10.0961 14.8849 9.75994C15.5526 9.42377 16.3125 9.25568 17.1648 9.25568C18.0076 9.25568 18.7604 9.42377 19.4233 9.75994C20.0862 10.0961 20.607 10.5554 20.9858 11.1378C21.3693 11.7202 21.5634 12.3807 21.5682 13.1193C21.5634 13.8911 21.3527 14.58 20.9361 15.1861C20.5241 15.7874 19.9773 16.178 19.2955 16.358V16.4432C19.821 16.5379 20.2945 16.7628 20.7159 17.1179C21.1373 17.4683 21.4735 17.9062 21.7244 18.4318C21.9754 18.9527 22.1032 19.5208 22.108 20.1364C22.1032 20.9223 21.8902 21.6231 21.4688 22.2386C21.0521 22.8494 20.4721 23.33 19.7287 23.6804C18.9901 24.026 18.1354 24.1989 17.1648 24.1989ZM17.1648 22.6364C17.8229 22.6364 18.3911 22.5298 18.8693 22.3168C19.3475 22.1037 19.7169 21.803 19.9773 21.4148C20.2377 21.0265 20.3703 20.572 20.375 20.0511C20.3703 19.5019 20.2282 19.0166 19.9489 18.5952C19.6695 18.1738 19.2884 17.8423 18.8054 17.6009C18.3272 17.3594 17.7803 17.2386 17.1648 17.2386C16.5445 17.2386 15.9905 17.3594 15.5028 17.6009C15.0199 17.8423 14.6387 18.1738 14.3594 18.5952C14.0848 19.0166 13.9498 19.5019 13.9545 20.0511C13.9498 20.572 14.0753 21.0265 14.331 21.4148C14.5914 21.803 14.9631 22.1037 15.446 22.3168C15.929 22.5298 16.5019 22.6364 17.1648 22.6364ZM17.1648 15.733C17.6856 15.733 18.1473 15.6288 18.5497 15.4205C18.9569 15.2121 19.2765 14.9209 19.5085 14.5469C19.7405 14.1728 19.8589 13.7348 19.8636 13.233C19.8589 12.7405 19.7429 12.312 19.5156 11.9474C19.2884 11.5781 18.9735 11.294 18.571 11.0952C18.1686 10.8916 17.6998 10.7898 17.1648 10.7898C16.6203 10.7898 16.1444 10.8916 15.7372 11.0952C15.33 11.294 15.0152 11.5781 14.7926 11.9474C14.5701 12.312 14.4612 12.7405 14.4659 13.233C14.4612 13.7348 14.5724 14.1728 14.7997 14.5469C15.0317 14.9209 15.3513 15.2121 15.7585 15.4205C16.1657 15.6288 16.6345 15.733 17.1648 15.733Z" fill="white"/>
</svg>
