<svg width="35" height="35" viewBox="0 0 35 35" fill="none" xmlns="http://www.w3.org/2000/svg">
<circle cx="17.5" cy="17.5" r="16.5" stroke="white" stroke-width="2"/>
<path d="M17.1364 9.25568C17.733 9.26042 18.3295 9.37405 18.9261 9.59659C19.5227 9.81913 20.0672 10.1884 20.5597 10.7045C21.0521 11.2159 21.4474 11.9143 21.7457 12.7997C22.044 13.6851 22.1932 14.7955 22.1932 16.1307C22.1932 17.4233 22.0701 18.5715 21.8239 19.5753C21.5824 20.5743 21.232 21.4171 20.7727 22.1037C20.3182 22.7902 19.7642 23.3111 19.1108 23.6662C18.4621 24.0213 17.7282 24.1989 16.9091 24.1989C16.0947 24.1989 15.3679 24.0379 14.7287 23.7159C14.0942 23.3892 13.5734 22.937 13.1662 22.3594C12.7637 21.777 12.5057 21.1023 12.392 20.3352H14.125C14.2812 21.0028 14.5914 21.5545 15.0554 21.9901C15.5241 22.4209 16.142 22.6364 16.9091 22.6364C18.0313 22.6364 18.9167 22.1463 19.5653 21.1662C20.2188 20.1861 20.5455 18.8011 20.5455 17.0114H20.4318C20.1667 17.4091 19.8518 17.7524 19.4872 18.0412C19.1226 18.33 18.7178 18.5526 18.2727 18.7088C17.8277 18.8651 17.3542 18.9432 16.8523 18.9432C16.0189 18.9432 15.2543 18.7372 14.5582 18.3253C13.867 17.9086 13.313 17.3381 12.8963 16.6136C12.4844 15.8845 12.2784 15.0511 12.2784 14.1136C12.2784 13.2235 12.4773 12.4091 12.875 11.6705C13.2775 10.9271 13.8409 10.3352 14.5653 9.89489C15.2945 9.45455 16.1515 9.24148 17.1364 9.25568ZM17.1364 10.8182C16.5398 10.8182 16.0024 10.9673 15.5241 11.2656C15.0507 11.5592 14.6742 11.9569 14.3949 12.4588C14.1203 12.956 13.983 13.5076 13.983 14.1136C13.983 14.7197 14.1155 15.2713 14.3807 15.7685C14.6506 16.2609 15.0175 16.6539 15.4815 16.9474C15.9503 17.2363 16.483 17.3807 17.0795 17.3807C17.5294 17.3807 17.9484 17.2931 18.3366 17.1179C18.7249 16.938 19.0634 16.6941 19.3523 16.3864C19.6458 16.0739 19.8755 15.7211 20.0412 15.3281C20.2069 14.9304 20.2898 14.5161 20.2898 14.0852C20.2898 13.517 20.1525 12.9844 19.8778 12.4872C19.608 11.9901 19.2339 11.5876 18.7557 11.2798C18.2822 10.9721 17.7424 10.8182 17.1364 10.8182Z" fill="white"/>
</svg>
